<svg width="967" height="73" viewBox="0 0 967 73" fill="none" xmlns="http://www.w3.org/2000/svg">
<path d="M0 43.8H16.8128V29.2H0V43.8ZM16.8128 29.2H33.6256V14.6H16.8128V29.2ZM33.6256 14.6H50.4384V0H33.6256V14.6ZM50.4384 73V58.4H33.6256V73H50.4384ZM33.6256 58.4V43.8H16.8128V58.4H33.6256ZM116.253 0H65.8144V14.6H82.6273V58.4H65.8144C65.8144 67.8974 71.7118 73 82.6273 73H116.253V58.4H99.4401V14.6H116.253V0ZM131.629 0V58.4C131.629 67.8974 137.505 73 148.442 73V29.2H165.254V14.6H148.442V0H131.629ZM182.067 0V29.2H165.254V43.8H182.067V73H198.88V0H182.067ZM214.256 0V58.4C214.256 67.8974 220.132 73 231.069 73V43.8H264.695V29.2H231.069V14.6H276.704V0H214.256ZM325.705 43.8H308.892V58.4H325.705V43.8ZM325.705 43.8H342.518V29.2H325.705V43.8ZM342.518 29.2H359.331V14.6H342.518V29.2ZM359.331 14.6H376.144V0H359.331V14.6ZM292.08 73H308.892V58.4H292.08V73ZM425.124 43.8H408.311V58.4H425.124V43.8ZM425.124 43.8H441.937V29.2H425.124V43.8ZM441.937 29.2H458.75V14.6H441.937V29.2ZM458.75 14.6H475.562V0H458.75V14.6ZM391.498 73H408.311V58.4H391.498V73ZM490.938 14.6V58.4C490.938 67.8974 496.836 73 507.751 73H541.377C552.314 73 558.19 67.8974 558.19 58.4V14.6C558.19 5.10255 552.314 0 541.377 0H507.751C496.836 0 490.938 5.10255 490.938 14.6ZM541.377 58.4H507.751V14.6H541.377V58.4ZM573.566 0V58.4C573.566 67.8974 579.442 73 590.378 73V29.2H607.191V14.6H590.378V0H573.566ZM640.817 0V14.6H624.004V29.2H640.817V73H657.63V0H640.817ZM607.191 29.2V43.8H624.004V29.2H607.191ZM673.006 0V58.4C673.006 67.8974 678.882 73 689.819 73H735.453V58.4H689.819V43.8H723.444V29.2H689.819V14.6H735.453V0H673.006ZM750.829 14.6V58.4C750.829 67.8974 756.705 73 767.642 73H818.081V29.2H784.455V43.8H801.268V58.4H767.642V14.6H818.081V0H767.642C756.705 0 750.829 5.10255 750.829 14.6ZM833.435 0V58.4C833.435 67.8974 839.332 73 850.248 73V43.8H883.873V73H900.686V0H833.435ZM883.873 29.2H850.248V14.6H883.873V29.2ZM966.501 43.8V29.2H949.688V43.8H966.501ZM949.688 29.2V14.6H932.875V29.2H949.688ZM932.875 14.6V0H916.062V14.6H932.875ZM916.062 73H932.875V58.4H916.062V73ZM932.875 58.4H949.688V43.8H932.875V58.4Z" fill="#A52A2A"/>
</svg>
