<svg width="852" height="433" viewBox="0 0 852 433" fill="none" xmlns="http://www.w3.org/2000/svg">
<path d="M0 265.689H68.3134V182.102H0V265.689ZM68.3134 182.102H136.627V98.514H68.3134V182.102ZM136.627 98.514H204.94V14.9263H136.627V98.514ZM204.94 432.865V349.277H136.627V432.865H204.94ZM136.627 349.277V265.689H68.3134V349.277H136.627ZM426 55.5474C394.109 55.5474 370.031 67.7728 353.766 92.2236C337.501 116.745 329.368 150.898 329.368 194.682C329.368 232.851 334.422 267.182 344.529 297.674C354.637 328.096 372.529 355.034 398.204 378.49V432.865H261.577V377.317H344.007C323.21 358.624 306.219 333.142 293.033 300.873C279.847 268.675 273.253 231.074 273.253 188.072C273.253 149.832 279.295 116.603 291.377 88.3854C303.402 60.0964 320.8 38.311 343.571 23.0292C366.342 7.67641 393.818 0 426 0C458.24 0 485.745 7.67641 508.516 23.0292C531.287 38.311 548.685 59.9898 560.71 88.0655C572.734 116.141 578.747 149.264 578.747 187.432C578.747 230.861 572.241 268.675 559.228 300.873C546.216 333.142 529.312 358.624 508.516 377.317H590.945V432.865H453.36V378.49C479.384 355.461 497.508 328.522 507.732 297.674C518.014 266.827 523.155 232.496 523.155 194.682C523.155 150.898 515.022 116.745 498.757 92.2236C482.492 67.7728 458.24 55.5474 426 55.5474ZM852 265.689V182.102H783.687V265.689H852ZM783.687 182.102V98.514H715.373V182.102H783.687ZM715.373 98.514V14.9263H647.06V98.514H715.373ZM647.06 432.865H715.373V349.277H647.06V432.865ZM715.373 349.277H783.687V265.689H715.373V349.277Z" fill="#A52A2A"/>
</svg>
